<?xml version="1.0" standalone="no"?>
<!DOCTYPE svg PUBLIC "-//W3C//DTD SVG 20010904//EN"
 "http://www.w3.org/TR/2001/REC-SVG-20010904/DTD/svg10.dtd">
<svg version="1.0" xmlns="http://www.w3.org/2000/svg"
 width="525.000000pt" height="498.000000pt" viewBox="0 0 525.000000 498.000000"
 preserveAspectRatio="xMidYMid meet">

<g transform="translate(0.000000,498.000000) scale(0.100000,-0.100000)"
fill="#000000" stroke="none">
<path d="M2491 4866 c-9 -10 -9 -16 -1 -21 6 -4 12 -5 13 -4 2 2 9 12 16 22
11 14 11 17 -2 17 -8 0 -20 -6 -26 -14z"/>
<path d="M2416 4835 c-3 -8 -3 -21 0 -29 7 -18 -39 -103 -72 -134 -13 -13 -24
-28 -24 -34 0 -7 -13 -26 -29 -42 -69 -74 -81 -88 -81 -98 0 -6 7 -5 17 3 14
12 16 12 11 -1 -3 -8 -15 -14 -27 -13 -16 2 -21 -3 -21 -20 0 -13 -12 -39 -26
-58 l-26 -34 6 40 c3 22 12 44 19 50 8 5 12 16 10 23 -6 17 -23 15 -23 -2 0
-8 -10 -16 -22 -18 -23 -3 -24 -7 -32 -139 -2 -43 -12 -91 -20 -108 -17 -33
-30 -42 -19 -15 11 29 -21 10 -37 -22 l-15 -29 -3 33 c-3 25 -7 32 -19 28 -8
-3 -19 -6 -24 -6 -5 0 -9 -8 -9 -18 0 -23 -19 -42 -42 -42 -24 0 -23 -17 2
-25 11 -3 19 -9 18 -13 -1 -4 2 -15 7 -25 10 -24 -20 -80 -62 -118 -39 -34
-42 -43 -8 -27 32 14 46 1 20 -19 -11 -8 -19 -18 -18 -22 7 -26 3 -104 -6
-150 -7 -35 -8 -58 -1 -66 5 -6 16 -60 25 -121 8 -60 22 -147 30 -194 8 -47
19 -166 24 -265 8 -174 9 -182 39 -235 32 -58 60 -82 42 -36 -6 16 -6 27 0 31
6 4 10 73 9 164 0 135 3 168 21 222 20 60 39 104 60 139 17 29 40 119 34 134
-3 9 -2 16 4 16 10 0 42 76 42 103 0 34 57 127 78 127 5 0 17 9 27 20 10 11
28 20 41 20 33 0 54 10 54 26 0 28 69 45 172 42 54 -2 98 1 98 6 0 5 21 5 48
1 26 -4 61 -9 77 -11 17 -2 47 -7 69 -10 26 -4 41 -2 46 6 4 7 13 9 20 5 9 -6
9 -9 -1 -16 -11 -7 -11 -9 2 -9 9 0 19 7 23 15 3 8 12 15 21 15 8 0 24 5 34
12 15 9 24 8 45 -5 31 -21 36 -21 36 -1 0 26 118 14 161 -17 19 -13 40 -23 47
-21 8 2 24 -3 36 -12 27 -17 46 -99 39 -159 -5 -32 -9 -38 -24 -34 -27 7 -34
-11 -13 -34 18 -20 18 -21 1 -31 -13 -7 -15 -13 -8 -22 6 -7 8 -29 6 -49 -3
-21 -1 -37 5 -37 6 0 10 6 10 13 1 12 14 -1 60 -62 14 -18 30 -38 36 -44 8 -8
8 -20 1 -40 -8 -25 -14 -28 -39 -25 -19 3 -32 0 -35 -9 -3 -8 -13 -11 -24 -8
-13 4 -19 1 -19 -9 0 -9 -4 -16 -10 -16 -5 0 -10 7 -10 15 0 19 -5 19 -33 0
-12 -8 -31 -14 -42 -15 -11 0 -31 -1 -45 -2 -14 -1 -44 2 -67 6 -37 7 -45 5
-66 -16 -13 -13 -29 -22 -35 -20 -7 2 -10 -3 -6 -12 5 -12 0 -16 -20 -16 -15
0 -36 -11 -51 -27 -23 -24 -25 -33 -19 -68 7 -43 7 -183 -1 -195 -5 -8 9 -169
21 -242 4 -25 11 -38 21 -38 10 0 13 -6 9 -16 -3 -8 -1 -24 5 -35 16 -32 0
-137 -26 -165 -12 -13 -26 -24 -31 -24 -15 0 -74 -45 -74 -57 0 -7 -8 -17 -17
-22 -16 -9 -16 -12 -3 -21 9 -6 10 -10 3 -10 -22 0 -67 24 -109 57 -23 19 -53
33 -68 33 -26 0 -35 -13 -15 -26 6 -3 8 -17 5 -30 -5 -18 -2 -24 10 -24 14 0
14 -3 4 -15 -9 -10 -16 -12 -25 -5 -17 14 -35 -8 -31 -39 2 -14 1 -18 -1 -8
-2 9 -11 17 -20 17 -12 0 -13 3 -4 14 8 10 8 16 -2 25 -8 6 -24 32 -38 57
l-24 47 23 15 c16 10 22 24 22 50 0 28 -3 33 -12 24 -7 -7 -16 -12 -20 -12
-13 0 -9 28 5 33 6 2 9 8 5 12 -9 9 -38 -19 -38 -37 0 -7 -13 -20 -29 -29 -16
-9 -35 -30 -43 -45 -9 -20 -22 -30 -41 -32 -16 -2 -31 -10 -34 -18 -3 -8 -14
-14 -24 -14 -14 0 -19 -7 -19 -25 0 -16 -6 -25 -15 -25 -9 0 -18 -7 -21 -15
-3 -8 -14 -17 -25 -20 -10 -4 -19 -11 -19 -18 0 -6 30 -40 68 -77 85 -84 108
-116 92 -136 -15 -17 -31 -9 -23 11 3 9 -1 15 -11 15 -20 0 -21 -24 -1 -40 8
-7 15 -19 15 -27 0 -12 8 -13 39 -8 24 4 42 2 46 -4 3 -6 10 -11 16 -11 12 0
12 33 -1 46 -7 7 -6 25 3 54 11 39 16 45 38 42 26 -4 72 -27 102 -51 9 -8 50
-18 90 -22 82 -8 158 -26 118 -28 -16 -1 -21 -5 -17 -16 3 -10 -4 -17 -25 -22
-17 -5 -30 -13 -30 -18 0 -6 -11 -16 -25 -23 -40 -21 -30 -42 55 -115 25 -22
40 -28 63 -25 33 5 49 -15 29 -35 -6 -6 -11 -21 -11 -33 0 -25 -27 -39 -45
-24 -7 6 -19 8 -28 4 -12 -4 -13 -12 -6 -37 11 -40 12 -37 -6 -37 -7 0 -18 7
-23 16 -12 21 -32 9 -33 -19 0 -15 -2 -17 -6 -7 -6 16 -43 49 -55 50 -5 0 -8
-11 -8 -25 0 -30 -20 -33 -27 -5 -7 25 -38 26 -48 2 -6 -15 -8 -15 -26 7 -10
13 -19 31 -19 41 0 13 -5 17 -20 13 -14 -4 -20 0 -20 12 0 9 -6 15 -12 12 -7
-2 -13 -19 -13 -37 0 -37 -16 -48 -35 -25 -16 19 -30 19 -30 0 0 -8 5 -15 10
-15 15 0 12 -36 -5 -50 -17 -14 -20 -30 -5 -30 6 0 10 7 10 15 0 8 7 15 15 15
18 0 18 0 0 -37 -19 -38 -10 -66 18 -57 18 6 19 3 13 -29 -4 -22 -2 -44 5 -55
8 -13 9 -24 1 -37 -10 -18 -1 -52 21 -82 11 -15 54 1 80 31 16 18 22 19 50 7
18 -7 43 -15 57 -17 14 -2 42 -7 62 -10 21 -3 42 -12 48 -19 6 -8 18 -11 25
-9 8 3 24 -4 36 -15 28 -26 35 -26 42 -1 6 23 54 28 88 8 17 -10 23 -10 26 0
3 6 8 12 13 12 15 0 20 -31 7 -51 -10 -17 -9 -22 6 -30 23 -13 22 -35 -2 -42
-11 -3 -22 -17 -26 -35 -6 -31 -33 -46 -55 -32 -30 19 -130 -53 -130 -94 0
-17 -14 -34 -46 -57 -25 -19 -59 -45 -75 -58 -16 -13 -33 -21 -36 -17 -4 3 -1
6 5 6 7 0 12 6 12 14 0 8 6 17 13 19 6 3 3 6 -8 6 -24 1 -42 28 -50 72 -7 40
-23 69 -37 69 -6 0 -8 3 -5 6 10 10 -12 44 -29 44 -10 0 -13 6 -10 18 4 10 0
25 -6 34 -16 20 -54 28 -51 11 2 -7 -2 -13 -8 -13 -7 0 -9 -10 -5 -25 10 -41
-9 -29 -68 45 -31 39 -58 70 -60 70 -10 0 10 -60 31 -92 12 -21 23 -46 23 -55
0 -10 9 -29 20 -43 23 -30 26 -48 5 -30 -12 10 -15 10 -15 -3 0 -9 7 -22 15
-30 8 -8 11 -18 7 -21 -3 -4 -2 -10 3 -14 18 -12 53 -86 60 -125 4 -20 10 -37
14 -37 4 0 13 -29 19 -64 14 -76 15 -86 3 -86 -4 0 -11 24 -14 53 -20 179
-132 340 -277 397 -51 20 -162 69 -182 80 -10 6 -25 10 -33 10 -8 0 -15 6 -15
14 0 9 -8 12 -25 8 -18 -3 -31 1 -40 14 -13 16 -16 17 -24 4 -9 -13 -12 -12
-25 5 -20 26 -20 53 -1 98 19 47 20 45 -20 40 -41 -4 -42 -1 -15 37 24 33 61
148 51 155 -4 2 -21 1 -37 -4 -30 -8 -35 -28 -19 -78 6 -18 3 -25 -16 -31 -16
-6 -24 -17 -24 -33 0 -13 -5 -23 -12 -22 -7 2 -10 -3 -7 -11 3 -8 -15 -46 -41
-84 -43 -64 -47 -75 -50 -143 -4 -74 -6 -87 -24 -189 -20 -115 -30 -194 -25
-202 20 -31 39 20 43 115 1 34 4 38 21 32 22 -7 60 2 60 15 0 12 -35 18 -52 9
-20 -11 -30 22 -21 75 4 27 16 48 40 69 61 54 110 85 121 78 16 -9 6 -53 -15
-68 -9 -7 -14 -16 -10 -19 4 -4 13 -1 22 6 12 10 16 9 21 -3 3 -9 19 -20 35
-26 28 -10 29 -12 29 -75 0 -37 1 -66 3 -67 1 -1 54 -4 117 -8 104 -6 122 -10
190 -42 41 -20 88 -39 103 -43 16 -4 27 -12 24 -19 -5 -17 -69 -16 -90 2 -17
14 -20 14 -28 -2 -7 -12 -17 -15 -34 -11 -14 3 -39 1 -56 -5 -24 -8 -42 -8
-71 1 -33 10 -41 9 -48 -2 -5 -8 -12 -12 -15 -9 -5 5 -72 -7 -145 -25 -60 -15
-153 -52 -193 -77 -26 -16 -51 -29 -56 -29 -15 0 -21 -26 -42 -184 -39 -288
-37 -266 -18 -266 9 0 16 6 16 13 -3 27 15 154 25 180 6 15 17 27 24 27 9 0
14 10 13 28 -1 16 -3 20 -6 10 -2 -10 -8 -18 -13 -18 -28 0 -7 135 24 155 51
33 279 64 331 45 6 -2 38 -1 72 3 49 6 67 5 87 -8 13 -9 41 -17 61 -18 42 -3
60 -25 51 -63 -6 -23 -36 -35 -36 -14 0 6 -5 10 -11 10 -8 0 -7 -5 1 -15 11
-13 9 -19 -8 -35 -12 -11 -29 -20 -38 -20 -33 0 -94 -23 -94 -36 0 -7 -7 -17
-15 -22 -13 -7 -14 -14 -6 -35 11 -28 5 -57 -13 -69 -6 -4 -7 -10 -3 -14 9 -9
57 35 57 52 0 7 -6 14 -12 17 -10 3 -9 9 3 23 9 10 14 25 12 32 -4 10 2 13 18
10 13 -1 24 -9 24 -15 0 -7 2 -14 5 -14 13 -4 58 16 80 35 14 12 44 35 68 51
38 25 50 49 26 51 -48 4 -60 53 -19 80 13 8 29 13 35 9 5 -3 10 0 10 8 0 8 14
20 30 26 24 8 30 7 30 -4 0 -7 -6 -16 -12 -19 -21 -8 21 -36 56 -37 17 -1 24
-3 14 -6 -9 -2 -19 -11 -22 -19 -7 -18 20 -74 35 -74 22 0 49 22 49 40 0 22
-16 36 -22 19 -2 -6 -13 -9 -23 -7 -17 3 -16 6 10 19 25 12 29 20 27 44 -5 45
9 23 19 -29 5 -26 4 -80 -2 -128 -5 -46 -11 -97 -13 -114 -5 -47 -17 -117 -22
-136 -5 -17 15 -18 333 -17 186 1 328 4 315 6 -13 3 -26 12 -29 21 -3 9 -15
25 -27 34 -11 9 -17 20 -13 24 4 4 17 -2 30 -13 27 -25 47 -20 47 12 0 15 7
25 23 29 12 4 37 25 56 49 l33 42 -7 -75 c-4 -41 -14 -87 -21 -102 -14 -27
-14 -28 11 -28 15 0 24 3 21 8 -2 4 0 27 5 52 15 74 27 138 53 295 38 217 135
577 191 700 7 17 32 75 54 130 53 126 56 132 113 233 27 46 48 87 48 92 0 4 7
10 14 13 30 12 44 96 39 233 -5 114 -2 141 20 234 14 58 31 149 38 203 14 109
-2 74 208 437 92 160 101 179 101 227 0 46 -4 56 -36 90 -35 36 -36 41 -36
107 1 38 5 90 11 115 21 101 31 170 31 225 0 32 5 76 11 96 9 30 8 54 -5 116
-9 44 -19 104 -22 134 -7 64 -41 174 -78 247 -27 53 -67 93 -93 93 -28 0 -101
70 -109 103 -12 59 -51 122 -110 178 -33 31 -68 60 -79 66 -32 17 -143 43
-185 43 -21 0 -42 5 -45 10 -3 6 -37 10 -74 10 -50 0 -72 4 -82 16 -21 26
-111 67 -164 76 -27 4 -93 13 -145 20 -52 6 -97 15 -100 18 -24 33 -319 36
-367 5 -33 -22 -55 -13 -47 20 7 27 -10 35 -20 10z m140 -70 c-8 -8 -20 -15
-27 -15 -6 0 -18 -8 -25 -17 -7 -10 -16 -14 -21 -10 -11 12 43 57 68 57 18 0
19 -2 5 -15z m74 12 c0 -2 -10 -12 -21 -23 -22 -19 -22 -19 -10 4 10 18 31 31
31 19z m-180 -43 c0 -8 -5 -12 -10 -9 -6 4 -8 11 -5 16 9 14 15 11 15 -7z
m-69 -67 c-10 -9 -11 -8 -5 6 3 10 9 15 12 12 3 -3 0 -11 -7 -18z m509 -36
c13 -25 13 -34 0 -26 -16 10 -32 45 -21 45 6 0 15 -9 21 -19z m-529 -34 c-16
-16 -26 0 -10 19 9 11 15 12 17 4 2 -6 -1 -17 -7 -23z m489 19 c0 -3 -4 -8
-10 -11 -5 -3 -10 -1 -10 4 0 6 5 11 10 11 6 0 10 -2 10 -4z m-560 -70 c0 -3
-4 -8 -10 -11 -5 -3 -10 -1 -10 4 0 6 5 11 10 11 6 0 10 -2 10 -4z m1195
-1773 c0 -6 3 -15 8 -19 4 -4 7 -16 7 -26 0 -10 12 -37 26 -60 21 -32 23 -42
12 -49 -10 -7 -9 -9 4 -9 11 0 18 -12 23 -41 4 -22 4 -43 1 -46 -3 -3 -1 -15
5 -25 8 -14 8 -23 0 -31 -14 -14 -14 -92 -1 -118 9 -16 7 -19 -15 -19 -15 0
-24 4 -20 9 3 5 1 12 -4 16 -5 3 -14 -2 -19 -11 -6 -11 -14 -14 -23 -8 -8 5
-16 9 -19 10 -39 12 -50 19 -50 30 0 8 -8 18 -17 21 -15 6 -14 8 7 13 18 4 26
14 28 33 5 41 -36 35 -52 -8 -7 -19 -8 -19 -29 5 -12 14 -35 31 -50 39 -15 8
-27 21 -27 28 0 8 -8 17 -18 21 -40 17 -121 77 -131 99 -12 26 0 68 21 75 7 3
13 18 13 34 0 21 4 28 15 25 8 -3 29 -4 45 -4 35 1 49 -15 32 -36 -14 -17 -10
-15 62 23 41 21 59 26 71 18 13 -8 19 -5 29 10 13 21 66 22 66 1z m-954 -464
c10 -9 16 -19 12 -22 -8 -8 -43 37 -42 55 0 9 2 9 6 -2 4 -8 14 -22 24 -31z
m-211 -140 c0 -5 -4 -9 -10 -9 -5 0 -10 7 -10 16 0 8 5 12 10 9 6 -3 10 -10
10 -16z m493 -26 c27 -8 56 -13 65 -11 9 2 25 -4 35 -14 16 -17 12 -18 -133
-14 -166 5 -214 12 -230 31 -9 11 -1 13 39 11 28 -1 56 1 63 6 21 12 109 8
161 -9z m187 -3 c0 -5 -5 -10 -11 -10 -5 0 -7 5 -4 10 3 6 8 10 11 10 2 0 4
-4 4 -10z m510 -29 c0 -6 -5 -13 -10 -16 -6 -4 -8 -16 -4 -27 5 -17 3 -18 -15
-9 -24 13 -28 41 -6 41 8 0 15 5 15 10 0 6 5 10 10 10 6 0 10 -4 10 -9z m-505
-451 c3 -5 1 -10 -4 -10 -6 0 -11 5 -11 10 0 6 2 10 4 10 3 0 8 -4 11 -10z
m-195 -10 c0 -5 -2 -10 -4 -10 -3 0 -8 5 -11 10 -3 6 -1 10 4 10 6 0 11 -4 11
-10z m-962 -417 c-3 -33 -8 -41 -41 -56 -47 -23 -70 -18 -39 9 13 10 32 34 43
52 27 42 41 41 37 -5z m1197 -93 c3 -5 1 -10 -4 -10 -6 0 -11 5 -11 10 0 6 2
10 4 10 3 0 8 -4 11 -10z m-230 -860 c3 -5 -1 -10 -9 -10 -9 0 -16 -4 -16 -10
0 -14 23 -13 37 1 13 13 43 5 43 -11 0 -5 -8 -10 -19 -10 -10 0 -26 -11 -35
-25 -18 -28 -41 -33 -50 -10 -3 8 -1 15 4 15 6 0 10 9 10 19 0 41 20 65 35 41z
m195 -24 c0 -8 -4 -17 -9 -21 -12 -7 -24 12 -16 25 9 15 25 12 25 -4z m60 -25
c0 -38 -42 -57 -54 -25 -11 28 -7 34 24 34 17 0 30 -4 30 -9z m-114 -38 c-10
-10 -19 5 -10 18 6 11 8 11 12 0 2 -7 1 -15 -2 -18z m44 7 c0 -5 -5 -10 -11
-10 -5 0 -7 5 -4 10 3 6 8 10 11 10 2 0 4 -4 4 -10z"/>
<path d="M1992 4269 c2 -6 8 -10 13 -10 5 0 11 4 13 10 2 6 -4 11 -13 11 -9 0
-15 -5 -13 -11z"/>
<path d="M3270 3385 c0 -8 7 -15 15 -15 8 0 15 7 15 15 0 8 -7 15 -15 15 -8 0
-15 -7 -15 -15z"/>
<path d="M693 3360 c-27 -11 -38 -43 -23 -69 8 -15 7 -26 -1 -39 -30 -49 20
-97 80 -76 28 10 41 55 22 78 -7 9 -7 22 2 45 11 30 10 34 -12 52 -25 21 -35
22 -68 9z m54 -36 c3 -8 -2 -23 -11 -32 -15 -15 -17 -15 -32 0 -21 21 -11 48
16 48 11 0 23 -7 27 -16z m-9 -76 c22 -22 14 -48 -13 -48 -27 0 -41 20 -31 45
7 18 28 19 44 3z"/>
<path d="M290 3350 c0 -5 18 -10 40 -10 22 0 40 -2 40 -4 0 -2 -11 -28 -25
-58 -26 -56 -33 -112 -13 -106 6 2 16 24 23 49 6 25 21 62 33 83 12 20 22 41
22 47 0 5 -27 9 -60 9 -33 0 -60 -4 -60 -10z"/>
<path d="M1046 3344 c-19 -18 -21 -65 -4 -82 7 -7 27 -12 45 -12 18 0 33 -4
33 -8 0 -16 -36 -42 -58 -42 -14 0 -22 -6 -22 -16 0 -13 6 -15 28 -9 72 17
106 82 78 150 -13 31 -19 35 -50 35 -19 0 -42 -7 -50 -16z m72 -42 c3 -31 2
-33 -25 -30 -31 3 -42 30 -22 54 20 24 44 12 47 -24z"/>
<path d="M1456 3333 c-3 -3 -6 -17 -6 -30 0 -18 -5 -23 -25 -23 -31 0 -33 -17
-2 -22 16 -2 23 -11 25 -30 5 -39 32 -37 32 2 0 25 4 30 25 30 14 0 25 5 25
10 0 6 -11 10 -25 10 -20 0 -25 5 -25 24 0 26 -12 40 -24 29z"/>
<path d="M2531 3232 c-58 -1 -110 -6 -115 -11 -6 -5 -23 -11 -38 -15 -61 -14
-81 -26 -69 -40 13 -15 -4 -26 -39 -26 -9 0 -23 -7 -30 -15 -7 -9 -19 -14 -27
-11 -20 8 -73 -34 -73 -57 0 -17 5 -18 43 -11 23 4 53 7 67 7 14 -1 31 4 39
10 12 10 14 9 8 -5 -4 -11 0 -18 11 -21 12 -3 4 -10 -25 -23 -24 -10 -43 -25
-43 -31 0 -7 -6 -13 -14 -13 -13 0 -13 -14 -1 -56 2 -7 21 -8 57 -3 43 6 61 3
96 -13 24 -11 46 -27 49 -34 3 -8 11 -14 17 -14 8 0 11 -11 8 -30 -4 -28 -8
-30 -46 -31 l-41 -1 40 -13 c65 -22 108 -18 169 15 31 16 63 27 70 24 7 -3 20
2 29 10 9 9 20 16 26 16 17 0 41 43 41 73 0 22 4 28 15 23 11 -4 15 1 15 19 0
16 -6 25 -15 25 -8 0 -15 8 -15 18 0 10 -5 23 -12 30 -10 10 -7 16 10 28 12 8
22 23 22 33 0 10 7 24 15 31 8 7 15 19 15 27 0 12 -3 13 -14 4 -9 -8 -16 -8
-20 -2 -4 5 -2 12 4 16 29 18 -12 57 -65 60 -16 1 -37 4 -45 6 -8 3 -62 3
-119 1z m-99 -277 c6 -28 -7 -32 -36 -10 -21 16 -14 35 13 35 12 0 20 -9 23
-25z m68 -135 c0 -5 -7 -10 -16 -10 -8 0 -12 5 -9 10 3 6 10 10 16 10 5 0 9
-4 9 -10z"/>
<path d="M1330 2900 l0 -140 135 0 135 0 0 140 0 140 -135 0 -135 0 0 -140z"/>
<path d="M337 2958 c-71 -97 -72 -106 -14 -110 34 -2 42 -7 42 -23 0 -11 7
-20 15 -20 8 0 15 8 15 18 0 10 7 22 15 27 13 9 13 11 1 19 -9 6 -14 29 -15
62 -1 67 -22 76 -59 27z m27 -50 c-1 -26 -6 -34 -22 -36 -26 -4 -29 14 -6 46
21 31 29 28 28 -10z"/>
<path d="M680 2961 c0 -16 -2 -36 -5 -43 -4 -10 6 -17 32 -24 31 -7 38 -13 38
-34 0 -22 -5 -25 -42 -28 -44 -3 -56 -15 -27 -26 50 -19 104 9 104 54 0 31
-30 60 -63 60 -13 0 -18 6 -15 23 2 18 10 23 41 25 55 5 45 22 -13 22 -49 0
-50 -1 -50 -29z"/>
<path d="M1064 2967 c-38 -33 -46 -115 -15 -146 29 -29 68 -24 95 12 19 26 19
30 5 55 -10 19 -24 28 -47 30 -40 4 -38 21 6 42 17 8 32 18 32 23 0 16 -51 6
-76 -16z m51 -102 c0 -23 -5 -31 -22 -33 -17 -3 -24 3 -29 22 -8 32 3 48 29
44 17 -2 22 -10 22 -33z"/>
<path d="M2380 2834 c0 -8 5 -12 10 -9 6 3 10 10 10 16 0 5 -4 9 -10 9 -5 0
-10 -7 -10 -16z"/>
<path d="M2420 2820 c0 -5 5 -10 10 -10 6 0 10 5 10 10 0 6 -4 10 -10 10 -5 0
-10 -4 -10 -10z"/>
<path d="M338 2597 c-35 -28 -36 -41 -3 -33 25 6 25 6 25 -64 0 -56 3 -70 15
-70 12 0 15 17 15 95 0 104 -5 111 -52 72z"/>
<path d="M671 2607 c-15 -19 -4 -27 23 -18 55 21 62 -26 12 -79 -19 -19 -37
-45 -41 -57 -6 -22 -4 -23 54 -23 48 0 61 3 61 15 0 11 -11 15 -42 15 l-42 0
31 33 c49 51 57 74 38 103 -18 27 -74 34 -94 11z"/>
<path d="M1047 2613 c-15 -14 -6 -21 26 -19 26 1 33 -3 35 -21 3 -17 -3 -24
-22 -29 -35 -8 -33 -20 4 -27 54 -11 27 -72 -29 -64 -11 1 -20 -2 -21 -8 -1
-14 65 -18 90 -5 22 12 28 58 8 78 -8 8 -9 18 0 36 15 35 -9 66 -52 66 -18 0
-36 -3 -39 -7z"/>
<path d="M1407 2573 c-4 -3 2 -16 13 -28 18 -20 19 -23 5 -35 -8 -7 -15 -19
-15 -26 0 -19 24 -18 40 1 12 14 15 14 32 -2 14 -12 21 -14 30 -5 9 9 7 16 -5
30 -16 17 -16 20 -2 32 19 16 20 40 1 40 -7 0 -19 -7 -26 -15 -12 -14 -15 -14
-30 0 -18 16 -33 19 -43 8z"/>
<path d="M2597 2536 c-9 -7 -17 -23 -17 -34 0 -11 -4 -24 -10 -27 -5 -3 -10
-17 -10 -31 0 -13 5 -24 10 -24 6 0 10 11 10 25 0 13 9 41 20 61 24 41 23 48
-3 30z"/>
<path d="M305 2230 c-25 -28 -26 -121 -1 -149 25 -28 71 -27 90 1 21 29 21
117 0 146 -19 28 -65 29 -89 2z m65 -19 c15 -30 12 -107 -5 -121 -26 -22 -45
5 -45 64 0 68 27 99 50 57z"/>
<path d="M1453 2215 c-7 -20 2 -29 21 -22 9 4 13 13 10 22 -8 19 -23 19 -31 0z"/>
<path d="M1030 2185 c0 -13 11 -15 63 -13 34 2 62 8 62 13 0 6 -28 11 -62 13
-52 2 -63 0 -63 -13z"/>
<path d="M700 2156 c0 -15 24 -28 34 -19 13 14 5 33 -14 33 -11 0 -20 -6 -20
-14z"/>
<path d="M1400 2155 c0 -12 14 -15 65 -15 51 0 65 3 65 15 0 12 -14 15 -65 15
-51 0 -65 -3 -65 -15z"/>
<path d="M1030 2125 c0 -13 11 -15 63 -13 34 2 62 8 62 13 0 6 -28 11 -62 13
-52 2 -63 0 -63 -13z"/>
<path d="M1450 2100 c0 -11 7 -20 15 -20 8 0 15 9 15 20 0 11 -7 20 -15 20 -8
0 -15 -9 -15 -20z"/>
<path d="M3855 2020 c3 -5 8 -10 11 -10 2 0 4 5 4 10 0 6 -5 10 -11 10 -5 0
-7 -4 -4 -10z"/>
<path d="M4000 2002 c0 -5 14 -7 30 -4 17 2 30 6 30 8 0 2 -13 4 -30 4 -16 0
-30 -4 -30 -8z"/>
<path d="M3880 1985 c0 -8 4 -15 9 -15 5 0 13 -9 16 -20 3 -11 10 -20 15 -20
11 0 -22 69 -32 70 -5 0 -8 -7 -8 -15z"/>
<path d="M2395 1930 c3 -5 12 -7 20 -3 21 7 19 13 -6 13 -11 0 -18 -4 -14 -10z"/>
<path d="M2185 1884 c-11 -20 -30 -43 -42 -51 -13 -9 -23 -22 -23 -29 0 -8 -4
-14 -10 -14 -5 0 -13 -18 -16 -40 -5 -29 -10 -38 -18 -31 -17 14 -45 -4 -30
-19 13 -13 6 -53 -7 -44 -5 3 -9 -2 -9 -11 0 -8 10 -19 21 -24 21 -7 20 -9
-12 -31 -19 -13 -36 -25 -38 -26 -7 -6 28 -34 41 -34 8 0 20 6 27 13 11 10 13
9 8 -4 -4 -13 -1 -15 14 -12 21 6 25 19 7 25 -9 3 -9 6 0 12 7 4 12 2 12 -3 0
-6 7 -11 15 -11 18 0 19 -12 3 -28 -9 -9 -9 -12 2 -12 7 0 -1 -13 -18 -28 -37
-33 -41 -46 -12 -37 16 5 19 3 13 -11 -4 -12 -2 -15 8 -10 8 3 22 9 32 12 9 4
17 11 17 16 0 5 8 7 18 4 13 -5 22 1 30 19 7 14 12 32 12 39 0 15 41 118 50
126 19 18 30 59 30 116 0 63 -2 69 -41 115 -22 27 -46 49 -53 49 -6 0 -20 -16
-31 -36z"/>
<path d="M2450 1905 c-10 -12 -10 -15 4 -15 9 0 16 7 16 15 0 8 -2 15 -4 15
-2 0 -9 -7 -16 -15z"/>
<path d="M4285 1622 c-25 -21 -95 -107 -95 -116 0 -10 -40 -97 -51 -110 -5 -6
-27 -39 -49 -74 -22 -34 -50 -67 -62 -73 -22 -10 -48 -43 -87 -112 -10 -18
-34 -59 -53 -92 -19 -33 -50 -103 -68 -155 -17 -52 -35 -104 -40 -115 -27 -74
-153 -447 -177 -525 l-20 -65 506 -3 c513 -2 520 -2 521 32 0 6 -6 1 -14 -10
-14 -17 -16 -18 -31 -3 -23 23 -22 47 7 110 44 94 76 222 35 137 l-16 -33 -32
68 c-19 43 -29 77 -26 93 3 19 -1 27 -17 34 -11 4 -23 4 -26 0 -3 -4 -28 -11
-56 -15 l-51 -7 -8 38 c-11 63 -36 113 -64 133 -16 12 -60 24 -109 31 -45 6
-101 20 -124 30 -24 11 -60 20 -80 20 -43 0 -42 -4 -11 130 22 96 89 201 108
170 14 -23 55 30 55 71 0 44 25 72 35 40 7 -24 25 -28 25 -6 0 8 7 15 15 15
12 0 15 13 15 61 0 78 24 190 56 254 33 70 30 83 -11 47z"/>
<path d="M1991 1388 c-36 -39 -40 -61 -9 -56 14 2 25 15 35 42 7 22 11 41 9
43 -2 2 -18 -11 -35 -29z"/>
<path d="M2930 1254 c0 -8 5 -12 10 -9 6 4 8 11 5 16 -9 14 -15 11 -15 -7z"/>
<path d="M2081 1191 c-10 -6 -10 -10 -1 -16 13 -8 24 -1 19 14 -3 6 -10 7 -18
2z"/>
<path d="M1099 1118 c-9 -22 -6 -120 8 -237 14 -118 14 -159 5 -230 -6 -47
-17 -159 -24 -249 -8 -117 -15 -161 -24 -158 -6 2 -44 14 -85 26 -68 21 -75
21 -101 6 -23 -14 -39 -15 -108 -7 -91 12 -124 4 -133 -31 -17 -62 -34 -58
272 -58 l278 0 7 68 c3 37 9 132 12 212 3 80 7 174 10 210 3 36 5 74 6 85 1
37 -43 217 -58 240 -9 14 -13 33 -9 45 5 15 -2 28 -24 51 -17 17 -32 29 -32
27z"/>
<path d="M2647 1054 c-14 -15 -6 -34 14 -34 14 0 19 5 17 17 -3 18 -20 27 -31
17z"/>
<path d="M2680 929 c0 -5 5 -7 10 -4 6 3 10 8 10 11 0 2 -4 4 -10 4 -5 0 -10
-5 -10 -11z"/>
<path d="M1636 704 c-3 -9 -6 -25 -6 -37 0 -20 2 -20 25 8 13 17 24 33 25 38
0 14 -38 7 -44 -9z"/>
<path d="M2375 520 c-8 -13 15 -13 35 0 12 8 11 10 -7 10 -12 0 -25 -4 -28
-10z"/>
<path d="M1680 435 c0 -8 5 -15 10 -15 6 0 10 7 10 15 0 8 -4 15 -10 15 -5 0
-10 -7 -10 -15z"/>
<path d="M2480 420 c0 -6 -12 -23 -27 -38 -29 -28 -76 -92 -68 -92 3 0 -3 -9
-12 -20 -10 -11 -23 -20 -29 -20 -6 0 -17 -7 -25 -16 -8 -9 -21 -13 -35 -10
-16 4 -30 -1 -48 -19 l-25 -25 115 0 c63 0 113 4 110 9 -5 8 1 33 33 121 8 25
17 52 18 60 1 8 5 25 9 38 4 13 2 22 -5 22 -6 0 -11 -5 -11 -10z"/>
<path d="M2435 410 c3 -5 8 -10 11 -10 2 0 4 5 4 10 0 6 -5 10 -11 10 -5 0 -7
-4 -4 -10z"/>
<path d="M2115 360 c-3 -5 3 -10 14 -10 12 0 21 5 21 10 0 6 -6 10 -14 10 -8
0 -18 -4 -21 -10z"/>
<path d="M2006 325 c4 -8 12 -15 20 -15 8 0 14 7 14 15 0 8 -9 15 -20 15 -13
0 -18 -5 -14 -15z"/>
<path d="M1995 270 c-3 -5 -1 -10 4 -10 6 0 11 5 11 10 0 6 -2 10 -4 10 -3 0
-8 -4 -11 -10z"/>
<path d="M2088 237 c-15 -12 -37 -30 -50 -39 -23 -17 -22 -17 29 -18 45 0 51
2 46 19 -3 10 0 22 6 25 12 8 15 36 4 36 -5 0 -20 -11 -35 -23z"/>
<path d="M1933 210 c-28 -16 -54 -20 -175 -23 l-143 -3 170 -2 c113 -1 165 2
155 8 -13 8 -13 10 1 10 9 0 19 7 23 15 7 19 7 19 -31 -5z"/>
</g>
</svg>
